<svg width="390.8274658203125px" height="53px" xmlns="http://www.w3.org/2000/svg" viewBox="54.586267089843744 48.5 390.8274658203125 53" style="background: rgba(0, 0, 0, 0);" preserveAspectRatio="xMidYMid"><defs><filter id="editing-extrusion" x="-100%" y="-100%" width="300%" height="300%"><feFlood result="color1" flood-color="#444"></feFlood><feConvolveMatrix order="10,10" divisor="1" kernelMatrix="1 0 0 0 0 0 0 0 0 0 0 1 0 0 0 0 0 0 0 0 0 0 1 0 0 0 0 0 0 0 0 0 0 1 0 0 0 0 0 0 0 0 0 0 1 0 0 0 0 0 0 0 0 0 0 1 0 0 0 0 0 0 0 0 0 0 1 0 0 0 0 0 0 0 0 0 0 1 0 0 0 0 0 0 0 0 0 0 1 0 0 0 0 0 0 0 0 0 0 1" in="SourceAlpha" result="extrude"></feConvolveMatrix><feComposite in="color1" in2="extrude" result="comp-extrude" operator="in"></feComposite><feOffset dx="5" dy="5" in="comp-extrude" result="offset-extrude"></feOffset><feMerge><feMergeNode in="offset-extrude"></feMergeNode><feMergeNode in="SourceGraphic"></feMergeNode></feMerge></filter></defs><g filter="url(#editing-extrusion)"><g transform="translate(114.1695910692215, 84.76500129699707)"><path d="M4.70 0L0.13 0L2.79-13.86L7.41-13.86L4.70 0ZM14.45-5.90L14.45-5.90L14.45-5.90Q15.20-7.25 15.20-8.61L15.20-8.61L15.20-8.61Q15.20-9.51 14.55-9.51L14.55-9.51L14.55-9.51Q14.05-9.51 13.52-8.65L13.52-8.65L13.52-8.65Q12.98-7.79 12.81-6.68L12.81-6.68L11.72 0L7.37 0.42L9.51-10.71L12.98-11.13L12.60-9.01L12.60-9.01Q13.63-11.13 15.94-11.13L15.94-11.13L15.94-11.13Q17.16-11.13 17.82-10.50L17.82-10.50L17.82-10.50Q18.48-9.87 18.48-8.58L18.48-8.58L18.48-8.58Q18.48-7.29 17.63-6.47L17.63-6.47L17.63-6.47Q16.78-5.65 15.33-5.65L15.33-5.65L15.33-5.65Q14.70-5.65 14.45-5.90ZM19.73-0.63L19.73-0.63L19.73-0.63Q19.24-1.18 19.02-2.04L19.02-2.04L19.02-2.04Q18.80-2.90 18.80-4.31L18.80-4.31L18.80-4.31Q18.80-5.71 19.28-6.99L19.28-6.99L19.28-6.99Q19.76-8.27 20.64-9.20L20.64-9.20L20.64-9.20Q22.45-11.13 25.43-11.13L25.43-11.13L25.43-11.13Q26.50-11.13 27.28-10.77L27.28-10.77L30.87-11.13L29.32-2.94L29.32-2.94Q29.25-2.69 29.25-2.23L29.25-2.23L29.25-2.23Q29.25-1.76 29.54-1.47L29.54-1.47L29.54-1.47Q29.82-1.18 30.24-1.13L30.24-1.13L30.24-1.13Q30.03-0.42 29.26 0L29.26 0L29.26 0Q28.50 0.42 27.64 0.42L27.64 0.42L27.64 0.42Q26.78 0.42 26.20 0.09L26.20 0.09L26.20 0.09Q25.62-0.23 25.45-0.78L25.45-0.78L25.45-0.78Q25.12-0.25 24.40 0.08L24.40 0.08L24.40 0.08Q23.69 0.42 22.73 0.42L22.73 0.42L22.73 0.42Q21.78 0.42 21.00 0.17L21.00 0.17L21.00 0.17Q20.22-0.08 19.73-0.63ZM24.16-9.16L24.16-9.16L24.16-9.16Q23.92-8.78 23.71-8.14L23.71-8.14L23.71-8.14Q23.50-7.50 23.15-5.79L23.15-5.79L23.15-5.79Q22.81-4.07 22.81-2.86L22.81-2.86L22.81-2.86Q22.81-1.64 23.00-1.28L23.00-1.28L23.00-1.28Q23.18-0.92 23.52-0.92L23.52-0.92L23.52-0.92Q24.19-0.92 24.69-1.56L24.69-1.56L24.69-1.56Q25.18-2.21 25.37-3.34L25.37-3.34L26.48-9.49L26.48-9.49Q26.04-9.87 25.53-9.87L25.53-9.87L25.53-9.87Q25.01-9.87 24.71-9.70L24.71-9.70L24.71-9.70Q24.40-9.53 24.16-9.16ZM38.12 0L35.70 0L39.50-13.86L43.89-13.86L44.86-5.94L48.76-13.86L52.44-13.86L52.82-3.49L52.82-3.49Q52.90-1.43 53.91-0.80L53.91-0.80L53.91-0.80Q53.68-0.38 53.00 0.02L53.00 0.02L53.00 0.02Q52.33 0.42 51.44 0.42L51.44 0.42L51.44 0.42Q50.55 0.42 50.02 0.17L50.02 0.17L50.02 0.17Q49.50-0.08 49.20-0.50L49.20-0.50L49.20-0.50Q48.68-1.26 48.68-2.71L48.68-2.71L48.68-9.20L44.54 0L41.94 0L40.47-9.43L38.12 0ZM55.72-0.63L55.72-0.63L55.72-0.63Q55.23-1.18 55.01-2.04L55.01-2.04L55.01-2.04Q54.79-2.90 54.79-4.31L54.79-4.31L54.79-4.31Q54.79-5.71 55.27-6.99L55.27-6.99L55.27-6.99Q55.76-8.27 56.64-9.20L56.64-9.20L56.64-9.20Q58.44-11.13 61.43-11.13L61.43-11.13L61.43-11.13Q62.50-11.13 63.27-10.77L63.27-10.77L66.86-11.13L65.31-2.94L65.31-2.94Q65.25-2.69 65.25-2.23L65.25-2.23L65.25-2.23Q65.25-1.76 65.53-1.47L65.53-1.47L65.53-1.47Q65.81-1.18 66.23-1.13L66.23-1.13L66.23-1.13Q66.02-0.42 65.26 0L65.26 0L65.26 0Q64.49 0.42 63.63 0.42L63.63 0.42L63.63 0.42Q62.77 0.42 62.19 0.09L62.19 0.09L62.19 0.09Q61.61-0.23 61.45-0.78L61.45-0.78L61.45-0.78Q61.11-0.25 60.40 0.08L60.40 0.08L60.40 0.08Q59.68 0.42 58.73 0.42L58.73 0.42L58.73 0.42Q57.77 0.42 56.99 0.17L56.99 0.17L56.99 0.17Q56.22-0.08 55.72-0.63ZM60.15-9.16L60.15-9.16L60.15-9.16Q59.91-8.78 59.70-8.14L59.70-8.14L59.70-8.14Q59.49-7.50 59.15-5.79L59.15-5.79L59.15-5.79Q58.80-4.07 58.80-2.86L58.80-2.86L58.80-2.86Q58.80-1.64 58.99-1.28L58.99-1.28L58.99-1.28Q59.18-0.92 59.51-0.92L59.51-0.92L59.51-0.92Q60.19-0.92 60.68-1.56L60.68-1.56L60.68-1.56Q61.17-2.21 61.36-3.34L61.36-3.34L62.48-9.49L62.48-9.49Q62.03-9.87 61.52-9.87L61.52-9.87L61.52-9.87Q61.01-9.87 60.70-9.70L60.70-9.70L60.70-9.70Q60.40-9.53 60.15-9.16ZM73.42-9.95L73.42-9.95L73.42-9.95Q74.55-11.13 76.94-11.13L76.94-11.13L76.94-11.13Q78.27-11.13 78.99-10.43L78.99-10.43L78.99-10.43Q79.72-9.72 79.72-8.43L79.72-8.43L79.72-8.43Q79.72-7.14 78.99-6.23L78.99-6.23L78.99-6.23Q78.27-5.31 76.92-4.94L76.92-4.94L76.92-4.94Q77.03-4.52 77.18-4.07L77.18-4.07L77.47-3.23L77.47-3.23Q77.87-2.16 78.18-1.79L78.18-1.79L78.18-1.79Q78.50-1.41 78.92-1.28L78.92-1.28L78.92-1.28Q78.69-0.42 77.85 0.04L77.85 0.04L77.85 0.04Q77.18 0.42 76.25 0.42L76.25 0.42L76.25 0.42Q73.54 0.42 73.19-3.76L73.19-3.76L73.19-3.76Q73.12-4.35 73.12-4.94L73.12-4.94L73.12-4.94Q74.17-5.23 74.91-6.22L74.91-6.22L74.91-6.22Q75.64-7.20 75.64-8.36L75.64-8.36L75.64-8.36Q75.64-9.51 74.82-9.51L74.82-9.51L74.82-9.51Q74.23-9.51 73.77-8.86L73.77-8.86L73.77-8.86Q73.31-8.21 73.10-7.10L73.10-7.10L71.72 0L67.47 0.42L70.41-14.70L74.63-15.12L74.15-12.62L74.15-12.62Q73.84-10.86 73.42-9.95ZM89.19-3.55L89.19-3.55L89.19-3.55Q89.71-3.19 89.71-2.40L89.71-2.40L89.71-2.40Q89.71-1.62 89.31-1.11L89.31-1.11L89.31-1.11Q88.91-0.61 88.26-0.27L88.26-0.27L88.26-0.27Q86.92 0.42 85.47 0.42L85.47 0.42L85.47 0.42Q84.02 0.42 83.17 0.11L83.17 0.11L83.17 0.11Q82.32-0.21 81.75-0.80L81.75-0.80L81.75-0.80Q80.64-1.91 80.64-3.95L80.64-3.95L80.64-3.95Q80.64-7.12 82.36-9.05L82.36-9.05L82.36-9.05Q84.21-11.13 87.42-11.13L87.42-11.13L87.42-11.13Q89.42-11.13 90.41-10.29L90.41-10.29L90.41-10.29Q91.14-9.66 91.14-8.63L91.14-8.63L91.14-8.63Q91.14-4.94 84.76-4.94L84.76-4.94L84.76-4.94Q84.67-4.39 84.67-3.93L84.67-3.93L84.67-3.93Q84.67-2.96 85.10-2.59L85.10-2.59L85.10-2.59Q85.53-2.23 86.33-2.23L86.33-2.23L86.33-2.23Q87.13-2.23 87.98-2.59L87.98-2.59L87.98-2.59Q88.83-2.96 89.19-3.55ZM84.90-5.84L84.90-5.84L84.90-5.84Q86.39-5.84 87.26-6.76L87.26-6.76L87.26-6.76Q88.12-7.64 88.12-9.05L88.12-9.05L88.12-9.05Q88.12-9.53 87.94-9.80L87.94-9.80L87.94-9.80Q87.76-10.06 87.40-10.06L87.40-10.06L87.40-10.06Q87.05-10.06 86.74-9.92L86.74-9.92L86.74-9.92Q86.44-9.79 86.12-9.32L86.12-9.32L86.12-9.32Q85.34-8.27 84.90-5.84ZM98.59-0.88L98.59-0.88L98.59-0.88Q97.59 0.42 95.09 0.42L95.09 0.42L95.09 0.42Q93.79 0.42 92.84-0.37L92.84-0.37L92.84-0.37Q91.90-1.16 91.90-2.29L91.90-2.29L91.90-2.29Q91.90-2.92 91.96-3.23L91.96-3.23L93.37-10.71L97.63-11.13L96.10-3.02L96.10-3.02Q96.01-2.56 96.01-2.29L96.01-2.29L96.01-2.29Q96.01-1.07 96.75-1.07L96.75-1.07L96.75-1.07Q97.57-1.07 98.15-2.18L98.15-2.18L98.15-2.18Q98.34-2.54 98.43-3.00L98.43-3.00L99.92-10.71L104.06-11.13L102.50-2.94L102.50-2.94Q102.44-2.63 102.44-2.29L102.44-2.29L102.44-2.29Q102.44-1.95 102.63-1.59L102.63-1.59L102.63-1.59Q102.82-1.22 103.42-1.13L103.42-1.13L103.42-1.13Q103.30-0.63 102.86-0.29L102.86-0.29L102.86-0.29Q101.93 0.42 100.94 0.42L100.94 0.42L100.94 0.42Q99.94 0.42 99.35 0.06L99.35 0.06L99.35 0.06Q98.76-0.29 98.59-0.88ZM114.97-1.44L114.97-1.44L114.97-1.44Q114.09-0.55 112.89-0.06L112.89-0.06L112.89-0.06Q111.68 0.42 110.48 0.42L110.48 0.42L110.48 0.42Q109.28 0.42 108.86 0.21L108.86 0.21L108.21 3.78L103.95 4.20L106.85-10.71L110.27-11.07L110.00-9.62L110.00-9.62Q110.88-11.11 112.71-11.11L112.71-11.11L112.71-11.11Q114.76-11.11 115.86-9.79L115.86-9.79L115.86-9.79Q116.82-8.59 116.82-6.76L116.82-6.76L116.82-6.76Q116.82-4.94 116.34-3.63L116.34-3.63L116.34-3.63Q115.86-2.33 114.97-1.44ZM110.23-7.33L109.12-1.18L109.12-1.18Q109.56-0.80 110.10-0.80L110.10-0.80L110.10-0.80Q110.65-0.80 110.96-1.01L110.96-1.01L110.96-1.01Q111.28-1.22 111.51-1.64L111.51-1.64L111.51-1.64Q112.14-2.77 112.64-6.22L112.64-6.22L112.64-6.22Q112.79-7.22 112.79-8.21L112.79-8.21L112.79-8.21Q112.79-9.20 112.57-9.51L112.57-9.51L112.57-9.51Q112.35-9.83 111.93-9.83L111.93-9.83L111.93-9.83Q110.65-9.83 110.23-7.33L110.23-7.33ZM123.32-0.63L123.32-0.63L123.32-0.63Q122.83-1.18 122.61-2.04L122.61-2.04L122.61-2.04Q122.39-2.90 122.39-4.31L122.39-4.31L122.39-4.31Q122.39-5.71 122.87-6.99L122.87-6.99L122.87-6.99Q123.35-8.27 124.24-9.20L124.24-9.20L124.24-9.20Q126.04-11.13 129.02-11.13L129.02-11.13L129.02-11.13Q130.09-11.13 130.87-10.77L130.87-10.77L134.46-11.13L132.91-2.94L132.91-2.94Q132.85-2.69 132.85-2.23L132.85-2.23L132.85-2.23Q132.85-1.76 133.13-1.47L133.13-1.47L133.13-1.47Q133.41-1.18 133.83-1.13L133.83-1.13L133.83-1.13Q133.62-0.42 132.86 0L132.86 0L132.86 0Q132.09 0.42 131.23 0.42L131.23 0.42L131.23 0.42Q130.37 0.42 129.79 0.09L129.79 0.09L129.79 0.09Q129.21-0.23 129.04-0.78L129.04-0.78L129.04-0.78Q128.71-0.25 127.99 0.08L127.99 0.08L127.99 0.08Q127.28 0.42 126.33 0.42L126.33 0.42L126.33 0.42Q125.37 0.42 124.59 0.17L124.59 0.17L124.59 0.17Q123.82-0.08 123.32-0.63ZM127.75-9.16L127.75-9.16L127.75-9.16Q127.51-8.78 127.30-8.14L127.30-8.14L127.30-8.14Q127.09-7.50 126.75-5.79L126.75-5.79L126.75-5.79Q126.40-4.07 126.40-2.86L126.40-2.86L126.40-2.86Q126.40-1.64 126.59-1.28L126.59-1.28L126.59-1.28Q126.78-0.92 127.11-0.92L127.11-0.92L127.11-0.92Q127.78-0.92 128.28-1.56L128.28-1.56L128.28-1.56Q128.77-2.21 128.96-3.34L128.96-3.34L130.07-9.49L130.07-9.49Q129.63-9.87 129.12-9.87L129.12-9.87L129.12-9.87Q128.60-9.87 128.30-9.70L128.30-9.70L128.30-9.70Q127.99-9.53 127.75-9.16ZM144.48 0.42L144.48 0.42L144.48 0.42Q141.94 0.42 141.94-1.55L141.94-1.55L141.94-1.55Q141.96-2.10 142.13-3.02L142.13-3.02L142.51-4.96L142.51-4.96Q143.07-7.69 143.07-8.29L143.07-8.29L143.07-8.29Q143.07-9.51 142.36-9.51L142.36-9.51L142.36-9.51Q141.16-9.51 140.53-6.38L140.53-6.38L139.29 0L135.07 0.42L137.26-10.73L140.70-11.13L140.36-9.07L140.36-9.07Q141.35-11.13 144.37-11.13L144.37-11.13L144.37-11.13Q145.84-11.13 146.46-10.51L146.46-10.51L146.46-10.51Q147.08-9.89 147.08-8.51L147.08-8.51L147.08-8.51Q147.08-7.20 146.41-4.16L146.41-4.16L146.41-4.16Q146.10-2.79 146.10-2.28L146.10-2.28L146.10-2.28Q146.10-1.76 146.38-1.47L146.38-1.47L146.38-1.47Q146.66-1.18 147.08-1.13L147.08-1.13L147.08-1.13Q146.87-0.42 146.15 0L146.15 0L146.15 0Q145.42 0.42 144.48 0.42ZM155.38-11.13L155.38-11.13L155.38-11.13Q156.13-11.13 156.72-10.96L156.72-10.96L156.72-10.96Q156.74-11.05 156.79-11.28L156.79-11.28L156.89-11.93L156.89-11.93Q156.97-12.35 157.10-13.04L157.10-13.04L157.44-14.70L161.62-15.12L159.28-2.94L159.28-2.94Q159.26-2.81 159.26-2.60L159.26-2.60L159.26-2.27L159.26-2.27Q159.26-1.81 159.49-1.46L159.49-1.46L159.49-1.46Q159.73-1.11 160.10-1.11L160.10-1.11L160.10-1.11Q159.68-0.13 158.40 0.29L158.40 0.29L158.40 0.29Q157.96 0.42 157.34 0.42L157.34 0.42L157.34 0.42Q156.72 0.42 156.16 0.09L156.16 0.09L156.16 0.09Q155.59-0.23 155.42-0.78L155.42-0.78L155.42-0.78Q155.08-0.23 154.41 0.09L154.41 0.09L154.41 0.09Q153.74 0.42 152.76 0.42L152.76 0.42L152.76 0.42Q151.79 0.42 150.98 0.17L150.98 0.17L150.98 0.17Q150.17-0.08 149.67-0.63L149.67-0.63L149.67-0.63Q148.74-1.70 148.74-4.14L148.74-4.14L148.74-4.14Q148.74-7.29 150.59-9.20L150.59-9.20L150.59-9.20Q152.44-11.13 155.38-11.13ZM155.23-9.87L155.23-9.87L155.23-9.87Q154.45-9.87 154.03-9.03L154.03-9.03L154.03-9.03Q153.61-8.19 153.18-6.11L153.18-6.11L153.18-6.11Q152.75-4.03 152.75-2.16L152.75-2.16L152.75-2.16Q152.75-0.88 153.51-0.88L153.51-0.88L153.51-0.88Q154.18-0.88 154.65-1.55L154.65-1.55L154.65-1.55Q155.13-2.23 155.32-3.34L155.32-3.34L156.45-9.49L156.45-9.49Q156.01-9.87 155.23-9.87ZM174.05-1.58L174.05-1.58L174.05-1.58Q174.05-3.05 174.64-5.99L174.64-5.99L171.53-5.99L170.37 0L165.98 0L168.65-13.86L173.08-13.86L171.86-7.67L174.97-7.67L176.13-13.86L180.56-13.86L180.56-13.86Q180.26-12.31 179.89-10.56L179.89-10.56L179.17-7.14L179.17-7.14Q178.37-3.15 178.37-1.41L178.37-1.41L178.37-1.41Q178.37-0.69 178.60-0.29L178.60-0.29L178.60-0.29Q177.55 0.42 176.33 0.42L176.33 0.42L176.33 0.42Q175.10 0.42 174.57-0.17L174.57-0.17L174.57-0.17Q174.05-0.76 174.05-1.58ZM181.98-0.63L181.98-0.63L181.98-0.63Q181.48-1.18 181.26-2.04L181.26-2.04L181.26-2.04Q181.04-2.90 181.04-4.31L181.04-4.31L181.04-4.31Q181.04-5.71 181.52-6.99L181.52-6.99L181.52-6.99Q182.01-8.27 182.89-9.20L182.89-9.20L182.89-9.20Q184.69-11.13 187.68-11.13L187.68-11.13L187.68-11.13Q188.75-11.13 189.52-10.77L189.52-10.77L193.12-11.13L191.56-2.94L191.56-2.94Q191.50-2.69 191.50-2.23L191.50-2.23L191.50-2.23Q191.50-1.76 191.78-1.47L191.78-1.47L191.78-1.47Q192.07-1.18 192.49-1.13L192.49-1.13L192.49-1.13Q192.28-0.42 191.51 0L191.51 0L191.51 0Q190.74 0.42 189.88 0.42L189.88 0.42L189.88 0.42Q189.02 0.42 188.44 0.09L188.44 0.09L188.44 0.09Q187.87-0.23 187.70-0.78L187.70-0.78L187.70-0.78Q187.36-0.25 186.65 0.08L186.65 0.08L186.65 0.08Q185.93 0.42 184.98 0.42L184.98 0.42L184.98 0.42Q184.02 0.42 183.25 0.17L183.25 0.17L183.25 0.17Q182.47-0.08 181.98-0.63ZM186.41-9.16L186.41-9.16L186.41-9.16Q186.16-8.78 185.95-8.14L185.95-8.14L185.95-8.14Q185.74-7.50 185.40-5.79L185.40-5.79L185.40-5.79Q185.05-4.07 185.05-2.86L185.05-2.86L185.05-2.86Q185.05-1.64 185.24-1.28L185.24-1.28L185.24-1.28Q185.43-0.92 185.77-0.92L185.77-0.92L185.77-0.92Q186.44-0.92 186.93-1.56L186.93-1.56L186.93-1.56Q187.42-2.21 187.61-3.34L187.61-3.34L188.73-9.49L188.73-9.49Q188.29-9.87 187.77-9.87L187.77-9.87L187.77-9.87Q187.26-9.87 186.95-9.70L186.95-9.70L186.95-9.70Q186.65-9.53 186.41-9.16ZM199.29-1.16L199.29-1.16L199.29-1.16Q198.64 0.42 196.56 0.42L196.56 0.42L196.56 0.42Q195.49 0.42 194.82-0.32L194.82-0.32L194.82-0.32Q194.25-0.97 194.25-1.62L194.25-1.62L194.25-1.62Q194.25-3.32 195.03-6.64L195.03-6.64L195.80-10.71L200.07-11.13L198.79-4.49L198.79-4.49Q198.43-2.94 198.43-2.39L198.43-2.39L198.43-2.39Q198.43-1.20 199.29-1.16ZM196.18-13.63L196.18-13.63L196.18-13.63Q196.18-14.45 196.86-14.89L196.86-14.89L196.86-14.89Q197.55-15.33 198.53-15.33L198.53-15.33L198.53-15.33Q199.52-15.33 200.12-14.89L200.12-14.89L200.12-14.89Q200.72-14.45 200.72-13.63L200.72-13.63L200.72-13.63Q200.72-12.81 200.06-12.39L200.06-12.39L200.06-12.39Q199.39-11.97 198.41-11.97L198.41-11.97L198.41-11.97Q197.42-11.97 196.80-12.39L196.80-12.39L196.80-12.39Q196.18-12.81 196.18-13.63ZM207.65-5.90L207.65-5.90L207.65-5.90Q208.40-7.25 208.40-8.61L208.40-8.61L208.40-8.61Q208.40-9.51 207.75-9.51L207.75-9.51L207.75-9.51Q207.25-9.51 206.72-8.65L206.72-8.65L206.72-8.65Q206.18-7.79 206.01-6.68L206.01-6.68L204.92 0L200.57 0.42L202.71-10.71L206.18-11.13L205.80-9.01L205.80-9.01Q206.83-11.13 209.14-11.13L209.14-11.13L209.14-11.13Q210.36-11.13 211.02-10.50L211.02-10.50L211.02-10.50Q211.68-9.87 211.68-8.58L211.68-8.58L211.68-8.58Q211.68-7.29 210.83-6.47L210.83-6.47L210.83-6.47Q209.98-5.65 208.53-5.65L208.53-5.65L208.53-5.65Q207.90-5.65 207.65-5.90ZM225.56 0.42L225.56 0.42L225.56 0.42Q222.87 0.42 222.62-3.40L222.62-3.40L219.01-3.40L219.01-3.40Q218.59-2.44 218.29-1.60L218.29-1.60L217.75 0L214.81 0L221.42-13.86L225.94-13.86L226.82-3.65L226.82-3.65Q227.03-1.45 227.87-0.80L227.87-0.80L227.87-0.80Q227.26 0.42 225.56 0.42ZM220.81-7.60L219.66-4.94L222.56-4.94L222.31-10.33L222.31-10.90L220.81-7.60ZM235.66-5.90L235.66-5.90L235.66-5.90Q236.42-7.25 236.42-8.61L236.42-8.61L236.42-8.61Q236.42-9.51 235.77-9.51L235.77-9.51L235.77-9.51Q235.26-9.51 234.74-8.65L234.74-8.65L234.74-8.65Q234.19-7.79 234.02-6.68L234.02-6.68L232.93 0L228.58 0.42L230.73-10.71L234.19-11.13L233.81-9.01L233.81-9.01Q234.84-11.13 237.15-11.13L237.15-11.13L237.15-11.13Q238.37-11.13 239.03-10.50L239.03-10.50L239.03-10.50Q239.69-9.87 239.69-8.58L239.69-8.58L239.69-8.58Q239.69-7.29 238.84-6.47L238.84-6.47L238.84-6.47Q237.99-5.65 236.54-5.65L236.54-5.65L236.54-5.65Q235.91-5.65 235.66-5.90ZM240.37-2.10L240.37-2.10L240.37-2.10Q240.37-2.67 240.66-4.10L240.66-4.10L241.77-9.77L240.53-9.77L240.62-10.40L240.62-10.40Q243.14-11.15 245.57-13.00L245.57-13.00L246.58-13.00L246.08-10.71L247.72-10.71L247.53-9.77L245.91-9.77L244.84-4.10L244.84-4.10Q244.57-2.79 244.57-2.35L244.57-2.35L244.57-2.35Q244.57-1.34 245.45-1.13L245.45-1.13L245.45-1.13Q245.24-0.42 244.48 0L244.48 0L244.48 0Q243.73 0.42 242.65 0.42L242.65 0.42L242.65 0.42Q241.58 0.42 240.97-0.25L240.97-0.25L240.97-0.25Q240.37-0.92 240.37-2.10ZM252.65-1.16L252.65-1.16L252.65-1.16Q252.00 0.42 249.92 0.42L249.92 0.42L249.92 0.42Q248.85 0.42 248.18-0.32L248.18-0.32L248.18-0.32Q247.61-0.97 247.61-1.62L247.61-1.62L247.61-1.62Q247.61-3.32 248.39-6.64L248.39-6.64L249.16-10.71L253.43-11.13L252.15-4.49L252.15-4.49Q251.79-2.94 251.79-2.39L251.79-2.39L251.79-2.39Q251.79-1.20 252.65-1.16ZM249.54-13.63L249.54-13.63L249.54-13.63Q249.54-14.45 250.23-14.89L250.23-14.89L250.23-14.89Q250.91-15.33 251.89-15.33L251.89-15.33L251.89-15.33Q252.88-15.33 253.48-14.89L253.48-14.89L253.48-14.89Q254.08-14.45 254.08-13.63L254.08-13.63L254.08-13.63Q254.08-12.81 253.42-12.39L253.42-12.39L253.42-12.39Q252.76-11.97 251.77-11.97L251.77-11.97L251.77-11.97Q250.78-11.97 250.16-12.39L250.16-12.39L250.16-12.39Q249.54-12.81 249.54-13.63ZM260.71-7.37L260.71-7.37L260.71-7.37Q261.01-8.15 261.01-8.82L261.01-8.82L261.01-8.82Q261.01-10.06 260.00-10.06L260.00-10.06L260.00-10.06Q259.48-10.06 259.05-9.59L259.05-9.59L259.05-9.59Q258.61-9.11 258.61-8.53L258.61-8.53L258.61-8.53Q258.61-8.11 258.95-7.77L258.95-7.77L258.95-7.77Q259.43-7.31 260.67-6.55L260.67-6.55L260.67-6.55Q261.91-5.80 262.38-5.18L262.38-5.18L262.38-5.18Q262.86-4.56 262.86-3.71L262.86-3.71L262.86-3.71Q262.86-2.86 262.45-2.08L262.45-2.08L262.45-2.08Q262.04-1.30 261.30-0.76L261.30-0.76L261.30-0.76Q259.73 0.42 257.21 0.42L257.21 0.42L257.21 0.42Q255.84 0.42 254.79-0.29L254.79-0.29L254.79-0.29Q253.74-0.99 253.74-1.81L253.74-1.81L253.74-1.81Q253.74-2.63 254.34-3.11L254.34-3.11L254.34-3.11Q254.94-3.59 255.82-3.59L255.82-3.59L255.82-3.59Q256.70-3.59 257.25-3.26L257.25-3.26L257.25-3.26Q256.98-2.56 256.98-2.10L256.98-2.10L256.98-2.10Q256.98-0.71 258.15-0.71L258.15-0.71L258.15-0.71Q258.66-0.71 258.99-1.03L258.99-1.03L258.99-1.03Q259.33-1.34 259.33-1.89L259.33-1.89L259.33-1.89Q259.33-2.96 257.52-4.10L257.52-4.10L257.52-4.10Q256.05-5.06 255.72-5.44L255.72-5.44L255.72-5.44Q255.15-6.11 255.15-6.95L255.15-6.95L255.15-6.95Q255.15-7.79 255.55-8.59L255.55-8.59L255.55-8.59Q255.95-9.39 256.68-9.95L256.68-9.95L256.68-9.95Q258.22-11.13 260.88-11.13L260.88-11.13L260.88-11.13Q262.25-11.13 263.06-10.58L263.06-10.58L263.06-10.58Q263.86-10.04 263.86-9.11L263.86-9.11L263.86-9.11Q263.86-8.19 263.31-7.67L263.31-7.67L263.31-7.67Q262.75-7.14 261.74-7.14L261.74-7.14L261.74-7.14Q261.05-7.14 260.71-7.37ZM264.98-2.10L264.98-2.10L264.98-2.10Q264.98-2.67 265.27-4.10L265.27-4.10L266.38-9.77L265.15-9.77L265.23-10.40L265.23-10.40Q267.75-11.15 270.19-13.00L270.19-13.00L271.19-13.00L270.69-10.71L272.33-10.71L272.14-9.77L270.52-9.77L269.45-4.10L269.45-4.10Q269.18-2.79 269.18-2.35L269.18-2.35L269.18-2.35Q269.18-1.34 270.06-1.13L270.06-1.13L270.06-1.13Q269.85-0.42 269.09 0L269.09 0L269.09 0Q268.34 0.42 267.27 0.42L267.27 0.42L267.27 0.42Q266.20 0.42 265.59-0.25L265.59-0.25L265.59-0.25Q264.98-0.92 264.98-2.10Z" fill="#ccc"></path></g></g><style>text {
  font-size: 64px;
  font-family: Arial Black;
  dominant-baseline: central;
  text-anchor: middle;
}</style></svg>